<?xml version="1.0" encoding="utf-8"?>
<!-- Generator: Adobe Illustrator 16.0.0, SVG Export Plug-In . SVG Version: 6.00 Build 0)  -->
<!DOCTYPE svg PUBLIC "-//W3C//DTD SVG 1.1//EN" "http://www.w3.org/Graphics/SVG/1.1/DTD/svg11.dtd">
<svg version="1.1" id="Ebene_1" xmlns="http://www.w3.org/2000/svg" xmlns:xlink="http://www.w3.org/1999/xlink" x="0px" y="0px"
	 width="1024px" height="768px" viewBox="0 0 1024 768" enable-background="new 0 0 1024 768" xml:space="preserve">
<g>
	<path fill="#FFFFFF" stroke="#FFFFFF" stroke-miterlimit="10" d="M444.266,223.852c-40.37,0-73.094,32.725-73.094,73.093
		c0,40.371,32.725,73.094,73.094,73.094c40.368,0,73.093-32.724,73.093-73.094C517.358,256.577,484.633,223.852,444.266,223.852z
		 M469.569,312.897c-16.782,0-30.386-13.604-30.386-30.386c0-16.782,13.604-30.387,30.386-30.387
		c16.784,0,30.387,13.604,30.387,30.387C499.957,299.293,486.353,312.897,469.569,312.897z"/>
	<path fill="#FFFFFF" stroke="#FFFFFF" stroke-miterlimit="10" d="M590.453,223.852c-40.368,0-73.095,32.725-73.095,73.093
		c0,40.371,32.727,73.094,73.095,73.094c40.369,0,73.094-32.724,73.094-73.094C663.547,256.577,630.822,223.852,590.453,223.852z
		 M608.04,312.897c-16.783,0-30.387-13.604-30.387-30.386c0-16.782,13.604-30.387,30.387-30.387
		c16.78,0,30.385,13.604,30.385,30.387C638.425,299.293,624.82,312.897,608.04,312.897z"/>
	<path fill="#FFFFFF" d="M481.198,370.039c0,0,36.137-28.271,68.986,0l-32.826,33.199L481.198,370.039z"/>
	<path fill="none" stroke="#FFFFFF" stroke-width="9" stroke-miterlimit="10" d="M343.148,357.476c0,0-29.566-54.43,14.784-105.351
		c0,0-39.22-22.996-12.219-65.702c0,0,28.644-31.208,63.137,9.855"/>
	<path fill="none" stroke="#FFFFFF" stroke-width="9" stroke-miterlimit="10" d="M625.868,196.278
		c34.496-41.064,63.139-9.855,63.139-9.855c27.001,42.706-12.217,65.702-12.217,65.702c44.348,50.92,14.782,105.351,14.782,105.351"
		/>
	<path fill="none" stroke="#FFFFFF" stroke-width="9" stroke-miterlimit="10" d="M402.079,196.278c0,0,113.871-80.485,231.299,0"/>
	
		<line fill="none" stroke="#FFFFFF" stroke-width="9" stroke-miterlimit="10" x1="187.185" y1="370.039" x2="371.171" y2="370.039"/>
	<line fill="none" stroke="#FFFFFF" stroke-width="9" stroke-miterlimit="10" x1="663.544" y1="370.039" x2="847.53" y2="370.039"/>
	<g>
		<path fill="#FFFFFF" d="M198.03,546.818l1.328-60.152c0-15.938-0.948-26.185-2.846-30.74l-9.298-14.42l0.569-2.846
			c8.98-2.022,21.882-3.036,38.71-3.036c2.402,3.671,3.604,10.467,3.604,20.399c0,9.932-0.634,23.274-1.896,40.034
			c-1.267,16.765-1.899,29.698-1.899,38.807c0,9.107,2.15,13.662,6.453,13.662c2.528,0,6.196-2.056,11.004-6.166
			c4.806-4.111,8.918-8.569,12.334-13.379c2.779-28.588,4.174-47.88,4.174-57.875c0-9.991-1.395-19.29-4.174-27.892
			c6.704-3.416,17.708-6.008,33.018-7.78c1.389,4.554,2.085,10.975,2.085,19.259c0,8.287-1.298,22.678-3.889,43.169
			c-2.595,20.493-3.892,34.061-3.892,40.701c0,6.642,1.929,9.963,5.791,9.963c3.855,0,9.075-3.667,15.652-11.008
			c6.577-7.335,12.618-16.475,18.122-27.416c5.503-10.944,8.568-20.844,9.205-29.697L312.07,468.64
			c0.884-7.589,2.688-14.136,5.407-19.638c2.721-5.505,5.22-9.141,7.495-10.912l3.417-2.655c7.714,0,13.63,1.993,17.742,5.977
			c4.11,3.983,6.167,8.699,6.167,14.136c0,10.246-2.561,22.2-7.686,35.863c-5.122,13.662-11.45,26.441-18.974,38.328
			c-7.528,11.895-16.1,21.982-25.711,30.269c-9.615,8.285-18.471,12.426-26.566,12.426c-4.807,0-9.077-2.275-12.807-6.829
			c-3.732-4.555-5.665-10.371-5.788-17.456c-5.569,7.591-11.451,13.536-17.647,17.836c-6.2,4.298-12.144,6.449-17.836,6.449
			c-5.693,0-10.66-2.371-14.896-7.115C200.147,560.574,198.03,554.408,198.03,546.818z"/>
		<path fill="#FFFFFF" d="M399.923,517.594c-3.416,0-6.01-0.06-7.781-0.186c-5.439,23.782-8.475,40.292-9.107,49.522
			c-5.441,2.657-13.727,3.984-24.858,3.984c-2.404,0-4.05-0.062-4.934-0.188c0.884-7.464,4.68-26.215,11.387-56.262
			c6.703-30.041,10.056-48.987,10.056-56.831c0-1.517-0.855-3.511-2.561-5.977c-1.708-2.466-3.449-4.521-5.219-6.168l-2.466-2.464
			l0.568-2.848c21.251-3.16,38.455-4.743,51.613-4.743c26.058,0,39.088,10.625,39.088,31.877c0,14.171-4.679,26.091-14.042,35.769
			C432.307,512.759,418.393,517.594,399.923,517.594z M396.888,504.882c9.739,0,17.107-3.667,22.106-11.006
			c4.997-7.334,7.495-17.138,7.495-29.411c0-5.058-0.947-9.2-2.845-12.427c-1.898-3.226-4.683-4.839-8.35-4.839
			c-2.406,0-5.377,0.443-8.917,1.328c-2.028,13.281-5.821,32.066-11.388,56.354H396.888z"/>
		<path fill="#FFFFFF" d="M488.154,550.802c0,2.786,0.694,4.173,2.088,4.173c0.758,0,4.426-1.641,11.004-4.93l3.606,7.019
			c-11.385,10.248-21.443,15.369-30.173,15.369c-5.44,0-9.579-1.833-12.425-5.502c-2.847-3.668-4.27-8.222-4.27-13.662
			c0-5.437,3.064-20.332,9.2-44.685c6.138-24.35,9.519-41.083,10.154-50.191c0-2.021-0.664-4.459-1.993-7.306
			c-1.326-2.846-2.688-5.151-4.079-6.925l-1.898-2.656l0.569-2.846c7.211-2.149,19.099-3.226,35.673-3.226
			c1.517,2.91,2.278,7.114,2.278,12.617c0,5.504-3.29,21.411-9.866,47.723C491.443,522.089,488.154,540.431,488.154,550.802z"/>
		<path fill="#FFFFFF" d="M523.448,571.104c-2.405,0-4.051-0.062-4.935-0.189c0.884-7.333,4.775-25.962,11.67-55.882
			c6.896-29.913,10.344-48.859,10.344-56.828c0-1.518-0.891-3.512-2.659-5.977c-1.771-2.47-3.542-4.524-5.312-6.169l-2.467-2.655
			l0.568-3.036c17.33-3.288,35.673-4.934,55.028-4.934c23.274,0,34.916,9.172,34.916,27.513c0,8.985-2.249,17.173-6.737,24.574
			c-4.494,7.4-11.48,13.187-20.969,17.36c7.084,23.658,13.156,38.965,18.218,45.92c2.274,2.912,4.045,4.364,5.311,4.364
			c2.28,0,5.819-1.137,10.626-3.415l2.278-1.139l4.364,7.02c-4.681,4.304-10.09,7.849-16.223,10.625
			c-6.139,2.785-11.895,4.176-17.27,4.176c-5.377,0-9.803-2.306-13.282-6.924c-3.48-4.617-6.64-11.415-9.485-20.399
			c-2.846-8.979-5.725-20.493-8.635-34.535c-4.051,0.258-7.147,0.381-9.298,0.381c-6.452,27.704-9.994,46.427-10.626,56.166
			C543.435,569.777,534.957,571.104,523.448,571.104z M566.902,498.052c7.589,0,13.566-3.383,17.93-10.153
			c4.364-6.764,6.548-14.83,6.548-24.192c0-4.934-0.887-8.917-2.658-11.953c-1.772-3.036-4.43-4.554-7.97-4.554
			c-1.52,0-3.318,0.222-5.407,0.661c-2.088,0.447-3.131,0.731-3.131,0.856c-2.024,13.031-5.312,29.478-9.867,49.335H566.902z"/>
		<path fill="#FFFFFF" d="M674.87,436.382l37.191,1.138l19.545-0.379c0.377,1.898,0.567,4.431,0.567,7.591
			c0,3.163-0.472,5.442-1.422,6.831c-0.949,1.394-2.562,2.088-4.841,2.088c-2.275,0-7.115-0.317-14.517-0.949
			c-7.396-0.632-12.872-0.948-16.411-0.948l-6.831,0.379c-0.507,4.809-3.542,20.18-9.108,46.11c9.613-0.883,17.646-1.33,24.099-1.33
			c6.45,0,11.445,0.51,14.992,1.518c-0.259,5.314-1.396,9.869-3.417,13.664c-5.44-1.139-11.892-1.709-19.354-1.709
			c-7.465,0-13.789,0.38-18.976,1.139c-4.685,22.898-7.02,40.293-7.02,52.181v3.227c-4.554,2.533-14.172,3.796-28.845,3.796h-1.898
			c0-8.601,2.943-26.501,8.825-53.7c5.882-27.195,9.454-46.74,10.721-58.634c0-2.021-0.635-4.459-1.896-7.306
			c-1.266-2.846-2.596-5.151-3.985-6.925l-1.898-2.656l0.57-2.846C657.79,437.267,665.761,436.511,674.87,436.382z"/>
		<path fill="#FFFFFF" d="M789.76,604.692c-5.503,3.414-10.37,5.596-14.607,6.544c-4.238,0.952-8.828,1.425-13.76,1.425
			c-4.933,0-9.143-1.454-12.62-4.365c-3.48-2.909-5.216-6.769-5.216-11.574c0-4.807,1.611-9.172,4.836-13.092
			c3.23-3.923,7.116-7.019,11.668-9.298c9.238-4.809,17.648-7.969,25.24-9.487l4.933-0.95c0.123-0.502,0.883-3.035,2.28-7.59
			c1.389-4.554,2.405-8.095,3.032-10.626c-16.061,9.616-29.288,14.422-39.654,14.422c-6.201,0-11.324-1.993-15.372-5.978
			c-4.052-3.983-6.072-9.678-6.072-17.078s2.403-20.744,7.211-40.038c4.806-19.288,7.21-32.161,7.21-38.614
			c0-4.174-1.896-8.92-5.692-14.23l-1.896-2.656l0.567-2.846c7.591-2.149,19.289-3.226,35.1-3.226
			c1.778,3.794,2.662,8.917,2.662,15.37c0,6.45-2.404,20.081-7.215,40.892c-4.806,20.81-7.209,32.858-7.209,36.147
			c0,6.705,2.277,10.057,6.83,10.057c8.6,0,17.772-2.469,27.521-7.401c7.707-31.75,12.962-61.732,15.747-89.943
			c6.452-3.289,15.298-4.932,26.56-4.932h3.61c0,6.707-1.139,16.003-3.421,27.892c-2.908,15.056-7.392,37.826-13.465,68.312
			c-2.661,13.661-6.14,25.586-10.442,35.769c-4.296,10.178-8.726,18.055-13.276,23.624
			C800.286,596.783,795.262,601.277,789.76,604.692z M761.393,599.949c4.429,0,9.045-2.438,13.855-7.307
			c4.798-4.873,8.723-10.658,11.764-17.361c-5.949,0.63-12.619,2.94-20.022,6.926c-7.402,3.983-11.098,8.062-11.098,12.239
			c0,1.519,0.531,2.812,1.615,3.889C758.58,599.408,759.871,599.949,761.393,599.949z"/>
	</g>
</g>
</svg>
